
<?xml version="1.0" encoding="UTF-8"?>
<svg width="44px" height="44px" viewBox="0 0 44 44" version="1.1" xmlns="http://www.w3.org/2000/svg" xmlns:xlink="http://www.w3.org/1999/xlink">
    <!-- Generator: Sketch 52.2 (67145) - http://www.bohemiancoding.com/sketch -->
    <title>ic_about</title>
    <desc>Created with Sketch.</desc>
    <g id="UI-Design" stroke="none" stroke-width="1" fill="none" fill-rule="evenodd">
        <g id="Homepage-MPV" transform="translate(-1165.000000, -3046.000000)" fill="#FFFFFF" fill-rule="nonzero">
            <g id="About" transform="translate(1040.000000, 2921.000000)">
                <g id="ic_about" transform="translate(104.000000, 104.000000)">
                    <g transform="translate(23.000000, 23.000000)" id="ic_about_svg">
                        <path d="M20,42 C7.8497355,42 -2,32.1502645 -2,20 C-2,7.8497355 7.8497355,-2 20,-2 C32.1502645,-2 42,7.8497355 42,20 C42,32.1502645 32.1502645,42 20,42 Z M20,38 C29.9411255,38 38,29.9411255 38,20 C38,10.0588745 29.9411255,2 20,2 C10.0588745,2 2,10.0588745 2,20 C2,29.9411255 10.0588745,38 20,38 Z M20,30 C14.4771525,30 10,25.5228475 10,20 C10,14.4771525 14.4771525,10 20,10 C25.5228475,10 30,14.4771525 30,20 C30,25.5228475 25.5228475,30 20,30 Z M20,26 C23.3137085,26 26,23.3137085 26,20 C26,16.6862915 23.3137085,14 20,14 C16.6862915,14 14,16.6862915 14,20 C14,23.3137085 16.6862915,26 20,26 Z M4.44578644,7.27421356 C3.66473785,6.49316498 3.66473785,5.22683502 4.44578644,4.44578644 C5.22683502,3.66473785 6.49316498,3.66473785 7.27421356,4.44578644 L15.7542136,12.9257864 C16.5352621,13.706835 16.5352621,14.973165 15.7542136,15.7542136 C14.973165,16.5352621 13.706835,16.5352621 12.9257864,15.7542136 L4.44578644,7.27421356 Z M24.2457864,27.0742136 C23.4647379,26.293165 23.4647379,25.026835 24.2457864,24.2457864 C25.026835,23.4647379 26.293165,23.4647379 27.0742136,24.2457864 L35.5542136,32.7257864 C36.3352621,33.506835 36.3352621,34.773165 35.5542136,35.5542136 C34.773165,36.3352621 33.506835,36.3352621 32.7257864,35.5542136 L24.2457864,27.0742136 Z M27.0742136,15.7542136 C26.293165,16.5352621 25.026835,16.5352621 24.2457864,15.7542136 C23.4647379,14.973165 23.4647379,13.706835 24.2457864,12.9257864 L32.7257864,4.44578644 C33.506835,3.66473785 34.773165,3.66473785 35.5542136,4.44578644 C36.3352621,5.22683502 36.3352621,6.49316498 35.5542136,7.27421356 L27.0742136,15.7542136 Z M27.0742136,15.7542136 C26.293165,16.5352621 25.026835,16.5352621 24.2457864,15.7542136 C23.4647379,14.973165 23.4647379,13.706835 24.2457864,12.9257864 L31.3057864,5.86578644 C32.086835,5.08473785 33.353165,5.08473785 34.1342136,5.86578644 C34.9152621,6.64683502 34.9152621,7.91316498 34.1342136,8.69421356 L27.0742136,15.7542136 Z M7.27421356,35.5542136 C6.49316498,36.3352621 5.22683502,36.3352621 4.44578644,35.5542136 C3.66473785,34.773165 3.66473785,33.506835 4.44578644,32.7257864 L12.9257864,24.2457864 C13.706835,23.4647379 14.973165,23.4647379 15.7542136,24.2457864 C16.5352621,25.026835 16.5352621,26.293165 15.7542136,27.0742136 L7.27421356,35.5542136 Z"></path>
                    </g>
                </g>
            </g>
        </g>
    </g>
</svg>