<svg xmlns="http://www.w3.org/2000/svg" xmlns:xlink="http://www.w3.org/1999/xlink" version="1.1" x="0px" y="0px" viewBox="0 0 96 120" style="enable-background:new 0 0 96 96;" xml:space="preserve"><path d="M88,45.9l-11.4,1.8l-5.2,11.8L66,60.9l-3.5,5.9c0,0-0.1-0.1-0.2-0.1c-0.6-0.3-2.3-1-3.7-1.5c0-0.1,0.2-14.5,0.2-14.5  c0,0,0,0,0,0c-0.1-1.2-0.8-2-1.7-2.7c-0.4-0.3-0.7-0.6-1.2-0.8l-8.4-3.5c0.3-0.7,1.5-4.4,2.2-7l0,0.1c0.1,0.3,0.9,1.7,1.4,2.1  c0,0,8.2,6.1,8.3,6.2c0.1,0.6,0.4,1,0.8,1.4c1.4,1.1,3.9,2.1,5.2,2.1c0.7,0,1.1-0.3,1.2-0.6c1.1-2.1-2.7-5.1-2.8-5.2  c-0.4-0.4-0.8-0.7-1.4-0.7c-0.2-0.2-7.9-7.2-8-7.4L51.7,28c0.1-2.6-0.6-4.6-2-6c0,0,0,0,0,0c0.1,0-0.2-0.1-0.6-0.3c0,0,0,0,0,0  c0-0.4,0.2-0.4,0.5-0.4c1,0,2.1-0.1,3.1-0.2c0.5,0,0.7-0.3,0.6-0.7c0-0.2,0.5-2.9,0.5-3.3c0.7-0.3,0.7-0.3,0.4-1  c-0.2-0.3-0.7-2.8-0.7-2.9c-0.2-2-1.1-4.1-3.4-5c-1.2-0.5-2.5-0.5-3.8-0.3c-3,0.5-5.1,2.9-5.1,5.9c0,1.6,0.6,3.1,1.5,4.4  c0.5,0.7,0.8,1.5,0.8,2.3c-1.2,0.3-2.4,1.3-3.4,2.5c-1.5,1.8-7.6,5.5-7.6,5.5c-0.6,0.4-1,1.1-1,1.8c-0.1,0.2-1.5,10.4-1.5,10.4  c0,0.2-0.1,0.4-0.1,0.6c-0.2,0.3-0.3,0.6-0.4,0.9c-0.3,1.8,0.1,4.9,0.9,5.9c0.3,0.4,0.6,0.4,0.8,0.4c0,0,0,0,0,0  c2.4,0,3.1-4.9,3.1-5c0.2-0.7,0.1-1.4-0.3-2l1.7-9.2l3.2-1.9c0,0.1-3.3,10.7-3.8,12.2c-0.4,1.3-0.3,2.7,0,3.8c0,0-0.6,15.1-0.6,15.4  c-0.2,0.2-9.6,14.7-10,15.4c-0.2,0.3-0.3,0.7-0.2,1c0.1,0.4,0.3,0.7,0.6,0.9l5.1,3.3L29,82.7l-6.6,4.8l-4.5,4h73.6v-46L88,45.9z   M48.6,69.9l-2.9,3.6l-9.2,10.1v-3l-2.2-0.3c0.5-0.1-0.5,0.3-0.5,0.2c-0.3-0.6-1.8-1.9-2.6-3.1c0.1-0.1,0.1-0.2,0.2-0.3l8.4-11  c0,0,0,0,0,0c0.4-0.7,0.8-1.3,1.1-2c0.3-0.7,0.4-1.5,0.5-2.4l1.8-11.2l9,2.5c0,0,0.9,14.6,1,15.4c0,0.4,0.2,0.7,0.4,0.9L48.6,69.9z"/></svg>