<svg xmlns="http://www.w3.org/2000/svg" xmlns:xlink="http://www.w3.org/1999/xlink" xmlns:a="http://ns.adobe.com/AdobeSVGViewerExtensions/3.0/" version="1.1" x="0px" y="0px" viewBox="-6.13 -5.123 100 125" enable-background="new -6.13 -5.123 100 100" xml:space="preserve"><path fill="#000000" d="M32.306,0.251c-0.144,0.143-0.431,0.487-0.646,0.774c-0.516,0.675-1.19,0.933-2.754,1.062  c-0.989,0.072-1.305,0.158-1.52,0.387c-0.144,0.173-0.273,0.345-0.273,0.417c0,0.057-0.129,0.172-0.287,0.258  c-0.244,0.129-0.416,0.086-0.976-0.287c-1.549-1.033-2.281-0.89-2.224,0.431c0.043,0.932,0.202,1.219,1.091,2.022  c1.047,0.947,0.976,1.047-1.994,2.726l-2.424,1.377l-1.147-0.028c-0.631,0-1.292-0.101-1.463-0.187  c-0.344-0.186-0.903-1.147-0.903-1.535c0-0.129-0.201-0.43-0.431-0.674c-0.416-0.402-0.488-0.416-1.262-0.344  c-0.445,0.042-1.593,0.128-2.54,0.172c-0.947,0.043-1.808,0.158-1.894,0.229c-0.359,0.301-0.215,0.832,0.316,1.133  c1.018,0.602,0.89,1.277-0.23,1.277c-0.588,0-1.133,0.373-1.133,0.789c0,0.344,0.344,1.076,0.903,1.894  c0.746,1.119,0.789,1.478,0.258,2.554c-0.244,0.487-0.445,1.09-0.445,1.334c0,0.244-0.071,0.617-0.157,0.846  c-0.086,0.215-0.244,0.818-0.345,1.334c-0.301,1.55-0.631,2.625-0.817,2.754c-0.101,0.058-0.603,0.072-1.119,0.029  c-0.66-0.058-1.119-0.014-1.564,0.144c-0.344,0.128-0.875,0.229-1.176,0.229c-0.416,0-0.76,0.144-1.349,0.545  c-1.076,0.761-1.564,1.463-2.037,2.941c-0.315,1.019-0.488,1.334-0.861,1.621C0.373,26.875,0,27.507,0,27.994  c0,0.187,0.201,0.617,0.43,0.976c0.229,0.358,0.43,0.789,0.43,0.961c0,0.172,0.258,0.846,0.588,1.478  c0.517,1.004,0.66,1.176,1.219,1.42c0.445,0.201,0.703,0.43,0.875,0.789c0.301,0.66,0.473,0.645,2.252-0.058L7.215,33l-0.1,1.22  c-0.043,0.674-0.043,1.377,0,1.578c0.187,0.76,1.205,0.918,4.246,0.646c1.206-0.115,1.463-0.187,1.851-0.502  c0.244-0.201,0.588-0.373,0.774-0.373c0.187,0,0.66-0.272,1.09-0.646c0.832-0.717,1.233-0.875,2.539-0.989  c0.875-0.086,0.904-0.072,1.047,0.315c0.115,0.272,0.115,0.588,0,1.076c-0.086,0.388-0.158,1.162-0.158,1.736  c0,0.889,0.058,1.133,0.374,1.606c0.861,1.291,1.693,1.922,2.525,1.922c0.344,0,0.817,0.229,1.649,0.775  c0.646,0.43,1.348,0.803,1.578,0.832c0.272,0.028,0.502,0.201,0.746,0.573c0.33,0.503,0.402,0.545,1.047,0.545  c0.803,0,2.252,0.646,2.611,1.176c0.301,0.431,0.315,2.51,0.015,2.898c-0.301,0.401-0.273,1.276,0.071,1.707  c0.445,0.573,1.521,1.004,2.869,1.176l1.219,0.144l-0.029,0.43c-0.014,0.244-0.072,0.747-0.115,1.148  c-0.101,0.774-0.129,0.745,1.205,1.507c0.144,0.085,0.23,0.444,0.272,1.047c0.043,0.731,0,1.033-0.258,1.534  c-0.172,0.33-0.273,0.746-0.229,0.904c0.043,0.157-0.057,0.531-0.201,0.817c-0.301,0.603-0.574,2.783-0.574,4.662  c0,1.507,0.1,1.606,1.736,1.766c0.66,0.07,1.406,0.229,1.664,0.357c0.976,0.502,1.377,1.464,1.248,2.97  c-0.101,1.22,0,1.349,1.018,1.305c0.603-0.027,0.89,0.029,1.091,0.216c0.344,0.315,0.344,0.517-0.029,2.095l-0.301,1.291  l0.516,0.415c0.273,0.244,0.56,0.632,0.631,0.891c0.158,0.588-0.129,2.711-0.401,3.041c-0.115,0.144-0.775,0.53-1.478,0.876  c-1.535,0.76-2.74,1.692-4.188,3.241c-0.717,0.79-1.076,1.276-1.076,1.506c0,0.201,0.258,0.718,0.574,1.148  c0.315,0.443,0.602,1.033,0.66,1.319c0.143,0.903,0.143,0.903,0.717,0.66c0.287-0.114,0.559-0.216,0.603-0.216  s0.502,0.431,1.019,0.977c0.516,0.53,1.248,1.233,1.635,1.577c0.373,0.329,0.789,0.847,0.933,1.148  c0.244,0.501,0.287,0.53,0.889,0.486c0.359-0.028,0.789,0.029,0.961,0.13c0.445,0.243,0.646,0.028,1.047-1.032  c0.244-0.675,0.603-1.191,1.535-2.225c1.205-1.334,1.42-1.492,1.722-1.19c0.085,0.086,0.329,0.129,0.559,0.101  c0.331-0.029,0.518-0.23,1.062-1.133c0.373-0.632,1.019-1.435,1.521-1.908c1.204-1.104,1.463-1.794,1.778-4.677  c0.115-1.004,0.272-1.765,0.517-2.281c0.187-0.416,0.344-0.918,0.344-1.104c0-0.315,0.029-0.329,0.373-0.172  c0.345,0.157,0.402,0.129,0.86-0.416c0.331-0.387,0.747-0.688,1.306-0.919c0.459-0.172,1.177-0.573,1.607-0.875  c0.603-0.416,0.918-0.545,1.377-0.545c0.961,0,2.022-0.387,2.726-1.004c0.745-0.646,1.248-0.731,2.166-0.345  c0.874,0.374,2.109,0.215,3.37-0.401c1.006-0.502,2.713-1.851,2.713-2.137c0-0.345,0.803-1.306,1.362-1.636  c0.559-0.33,2.367-2.381,2.783-3.186c0.085-0.172,0.157-0.603,0.157-0.975c0-0.832,0.272-1.464,0.861-2.008  c1.032-0.962,1.521-2.669,2.223-7.69c0.201-1.42,0.401-2.682,0.459-2.825c0.158-0.459,0.518-0.746,1.564-1.248  c1.205-0.573,2.18-1.593,2.568-2.639c0.544-1.463,0.688-1.578,2.366-2.095c0.961-0.287,1.593-0.746,2.023-1.463  c0.172-0.301,0.73-0.947,1.233-1.449c1.104-1.091,1.722-2.138,1.836-3.113c0.128-1.004-0.416-4.533-0.832-5.38  c-0.402-0.817-0.962-1.176-2.281-1.506c-0.574-0.129-1.219-0.33-1.42-0.445c-0.215-0.1-1.104-1.162-1.979-2.353  c-1.205-1.635-1.722-2.224-2.095-2.381c-0.273-0.115-0.745-0.474-1.062-0.804l-0.573-0.617h-1.908c-2.195,0-2.655-0.129-3.903-0.99  c-0.788-0.545-0.917-0.588-1.792-0.574c-0.66,0-1.263,0.115-2.008,0.387c-0.589,0.215-1.076,0.374-1.105,0.359  c-0.014-0.029,0.086-0.574,0.259-1.219c0.157-0.66,0.258-1.277,0.215-1.377c-0.043-0.115-0.517-0.445-1.062-0.746  c-0.531-0.301-1.104-0.66-1.262-0.804c-0.747-0.659-3.142-1.42-4.534-1.42c-0.76,0-1.104,0.086-1.793,0.431  c-0.474,0.229-0.976,0.545-1.134,0.688c-0.172,0.144-0.472,0.388-0.702,0.531l-0.416,0.272l-0.33-0.416  c-0.329-0.43-0.329-0.646,0.015-0.646c0.559,0,2.94-1.865,2.94-2.295c0-0.359-1.161-0.818-2.554-0.99  c-1.362-0.172-2.065-0.014-3.055,0.66c-1.205,0.832-2.138,1.147-2.138,0.746c0-0.259,0.96-1.607,1.535-2.152  c0.301-0.287,0.874-0.731,1.263-1.004c1.118-0.746,1.362-1.004,1.362-1.42c0-0.229,0.172-0.531,0.43-0.789  c0.244-0.23,0.431-0.445,0.431-0.502c0-0.043-0.344-0.201-0.745-0.345c-1.134-0.373-1.263-0.516-1.407-1.478  c-0.057-0.473-0.244-1.334-0.401-1.922c-0.157-0.588-0.329-1.233-0.373-1.435c-0.143-0.688-0.631-0.631-1.405,0.144  c-0.56,0.573-0.688,0.789-0.688,1.205c0,0.459-0.058,0.531-0.503,0.674c-0.271,0.086-0.53,0.272-0.573,0.416  c-0.187,0.617-0.745,0.918-1.851,0.99c-1.32,0.086-2.41-0.172-3.013-0.688c-0.631-0.56-2.224-0.846-2.74-0.517  c-0.201,0.129-0.358,0.287-0.358,0.358c0,0.058-0.259,0.302-0.56,0.517c-0.545,0.373-0.617,0.387-1.764,0.287  c-0.89-0.072-1.463-0.029-2.267,0.143c-0.588,0.129-1.42,0.273-1.836,0.316c-0.746,0.072-0.774,0.072-1.363-0.545  c-0.703-0.731-1.162-1.894-1.162-2.884c0-0.502,0.144-0.961,0.545-1.75l0.545-1.076l-0.517-0.617  c-0.459-0.517-0.517-0.689-0.445-1.076C33.51,0.15,32.879-0.323,32.306,0.251z"/></svg>