<svg xmlns="http://www.w3.org/2000/svg" xmlns:xlink="http://www.w3.org/1999/xlink" version="1.1" x="0px" y="0px" viewBox="0 0 48 60" enable-background="new 0 0 48 48" xml:space="preserve"><path fill="#000000" d="M47.3,8.9L43.9,5c-0.1-0.1-0.2-0.1-0.4-0.1h-15c-0.2,0-0.4-0.2-0.4-0.4V1.2c0-0.4-0.3-0.7-0.7-0.7h-6.8  c-0.4,0-0.7,0.3-0.7,0.7v3.2c0,0.2-0.2,0.4-0.4,0.4h-4.3c-0.3,0-0.6,0.3-0.6,0.6v7.7c0,0.3,0.3,0.6,0.6,0.6h4.3  c0.2,0,0.4,0.2,0.4,0.4v6.4c0,0.2-0.2,0.4-0.4,0.4h-15c-0.1,0-0.3,0-0.4,0.1l-3.4,3.9c-0.3,0.2-0.3,0.6,0,0.9l3.4,3.9  c0.1,0.1,0.2,0.1,0.4,0.1h15c0.2,0,0.4,0.2,0.4,0.4v16.6c0,0.4,0.3,0.7,0.7,0.7h6.8c0.4,0,0.7-0.3,0.7-0.7V30.2  c0-0.2,0.2-0.4,0.4-0.4h4.3c0.3,0,0.6-0.3,0.6-0.6v-7.7c0-0.3-0.3-0.6-0.6-0.6h-4.3c-0.2,0-0.4-0.2-0.4-0.4v-6.4  c0-0.2,0.2-0.4,0.4-0.4h15c0.1,0,0.3,0,0.4-0.1l3.4-3.9C47.6,9.5,47.6,9.1,47.3,8.9z"/></svg>