<svg xmlns="http://www.w3.org/2000/svg" xmlns:xlink="http://www.w3.org/1999/xlink" version="1.1" x="0px" y="0px" viewBox="0 0 100 100" enable-background="new 0 0 100 100" xml:space="preserve"><g><g><path d="M47.838,62.647c1.167-1.163,1.736-2.497,1.715-3.999c-0.021-1.503-0.649-3.559-1.886-6.171    c-1.502-2.9-2.29-5.369-2.364-7.405c-0.075-2.046,0.782-3.961,2.567-5.745c1.715-1.719,3.643-2.58,5.779-2.602    c2.136-0.026,4.187,0.801,6.155,2.474l3.207-3.203l1.616,1.612l-3.204,3.207c1.681,2.021,2.435,4.14,2.259,6.354    c-0.176,2.219-1.289,4.319-3.337,6.306l-0.112,0.048l-1.795-1.795c1.556-1.552,2.402-3.244,2.541-5.074    c0.136-1.828-0.552-3.501-2.062-5.014c-1.569-1.566-3.164-2.35-4.794-2.35c-1.628,0-3.071,0.632-4.331,1.889    c-1.209,1.206-1.816,2.538-1.833,3.992c-0.016,1.453,0.661,3.544,2.041,6.274c1.448,2.907,2.215,5.371,2.3,7.39    c0.083,2.021-0.759,3.914-2.524,5.681c-1.759,1.758-3.708,2.609-5.849,2.562c-2.142-0.042-4.222-0.921-6.243-2.623l-3.015,3.015    l-1.614-1.616l2.996-2.999c-1.797-2.031-2.777-4.231-2.935-6.602c-0.16-2.37,0.897-4.647,3.175-6.838l0.141-0.048l1.777,1.776    c-1.873,1.875-2.686,3.754-2.442,5.65c0.239,1.892,1.121,3.596,2.631,5.108c1.569,1.565,3.218,2.394,4.951,2.489    C45.085,64.488,46.582,63.907,47.838,62.647z"/></g></g><g><path d="M46.515,95c-0.35,0-0.698-0.133-0.964-0.399L5.4,54.448c-0.533-0.532-0.533-1.396,0-1.928L52.521,5.405   c0.282-0.28,0.679-0.45,1.067-0.395l37.287,2.863c0.671,0.051,1.204,0.583,1.255,1.254l2.865,37.289   c0.032,0.396-0.111,0.785-0.395,1.067L47.479,94.601C47.212,94.867,46.864,95,46.515,95z M8.292,53.484l38.223,38.224   l45.712-45.709l-2.727-35.496L54.005,7.778L8.292,53.484z"/></g><g><path d="M76.699,30.355c-1.884,0-3.653-0.735-4.983-2.065c-1.332-1.329-2.065-3.101-2.065-4.983s0.733-3.653,2.065-4.985   c2.66-2.663,7.306-2.663,9.969,0c1.332,1.332,2.065,3.103,2.065,4.985s-0.733,3.654-2.065,4.983   C80.354,29.62,78.582,30.355,76.699,30.355z M76.699,18.984c-1.155,0-2.239,0.448-3.054,1.266c-0.818,0.816-1.269,1.9-1.269,3.057   c0,1.153,0.45,2.24,1.267,3.055c1.633,1.636,4.48,1.636,6.113,0c0.816-0.814,1.266-1.901,1.266-3.055   c0-1.156-0.449-2.24-1.266-3.057C78.94,19.432,77.854,18.984,76.699,18.984z"/></g></svg>