<svg xmlns="http://www.w3.org/2000/svg" xmlns:xlink="http://www.w3.org/1999/xlink" version="1.1" x="0px" y="0px" viewBox="0 0 50 62.5" enable-background="new 0 0 50 50" xml:space="preserve"><g><path d="M41.3,1.6c-4.2,0-7.7,3.4-7.7,7.7c0,0.5,0,1,0.2,1.5h1.1c-0.1-0.5-0.2-1-0.2-1.5c0-3.6,2.9-6.6,6.6-6.6   c3.6,0,6.6,2.9,6.6,6.6s-2.9,6.6-6.6,6.6c-1.1,0-2.1-0.3-3-0.7l-0.8,0.8c1.1,0.7,2.4,1,3.8,1c4.3,0,7.7-3.4,7.7-7.7   S45.6,1.6,41.3,1.6z"/><path d="M41.1,8.3V3.6c-1.4,0-2.7,0.6-3.6,1.5l3.2,3.2H41.1z"/><path d="M35.8,10.8h1.3l1.3-1.3h-2.8C35.6,10,35.7,10.4,35.8,10.8z"/><path d="M35.6,9.1h3.3l0.8-0.8H40l-2.9-2.9C36.2,6.4,35.7,7.7,35.6,9.1z"/><path d="M41.5,8.3H42l3.2-3.2c-1-0.9-2.2-1.5-3.7-1.5V8.3z"/><path d="M45.5,5.4l-2.9,2.9h2.5l-0.8,0.8H47C46.9,7.7,46.4,6.4,45.5,5.4z"/><path d="M47,9.5h-3.1l-1,1l2.6,2.6C46.4,12.2,46.9,10.9,47,9.5z"/><path d="M41.5,11.9V15c1.4-0.1,2.7-0.6,3.7-1.5l-2.6-2.6L41.5,11.9z"/><path d="M41.1,12.3L39,14.5c0.7,0.3,1.4,0.5,2.1,0.5V12.3z"/><polygon points="21.9,25.9 36,11.8 7.8,11.8  "/><path d="M22.9,45.3V29.1L42.7,9.3h-2.6L21.9,27.5L3.6,9.3H1l19.5,19.6v16.4c-5.4,0.2-9.7,1.8-9.9,3.2h22.1   C32.6,47.1,28.4,45.5,22.9,45.3z"/></g></svg>