<svg xmlns="http://www.w3.org/2000/svg" xmlns:xlink="http://www.w3.org/1999/xlink" version="1.1" x="0px" y="0px" viewBox="0 0 100 125" enable-background="new 0 0 100 100" xml:space="preserve"><polygon points="62.631,2.5 62.239,4.624 62.406,5.853 63.636,6.691 65.033,6.748 65.424,8.145 65.815,9.43 67.045,9.932   67.827,10.492 67.883,10.714 68.609,11.274 70.174,12.113 70.677,12.895 70.846,13.9 70.846,16.08 72.019,16.695 73.36,16.917   74.03,16.08 74.98,15.13 75.763,15.297 75.763,16.191 75.482,17.533 75.372,18.315 75.819,18.65 75.873,18.707 75.482,19.321   76.88,20.439 77.774,21.444 79.06,22.003 80.233,21.891 82.245,22.786 83.14,22.842 83.865,22.786 84.647,23.624 85.374,24.462   86.156,25.58 86.659,26.977 88.169,27.2 89.23,27.48 92.415,28.821 94.316,29.659 95.991,30.609 95.6,32.063 94.371,33.459   92.975,34.856 92.415,36.478 91.019,39.606 90.628,41.618 90.46,43.351 90.571,44.636 90.795,45.139 89.733,45.81 88.783,46.145   87.219,45.865 86.437,45.641 85.765,46.536 86.156,47.262 85.989,47.542 84.982,48.212 83.418,49.721 82.58,50.336 81.741,51.396   81.071,52.738 80.848,53.13 79.842,53.521 79.227,54.359 78.612,54.807 78.277,55.588 77.941,56.371 77.662,57.769 77.384,59.445   77.774,59.836 78.836,59.389 79.618,58.327 80.568,57.209 81.741,57.321 83.027,57.6 83.418,57.824 83.195,58.83 83.195,60.115   83.25,60.953 83.25,61.735 84.257,62.127 84.535,62.797 84.535,63.691 83.643,63.58 83.14,63.58 82.858,64.194 83.027,64.977   83.25,65.983 83.753,67.604 84.033,68.889 84.257,70.174 82.58,71.012 81.798,71.906 81.351,73.08 81.351,73.751 81.575,74.477   82.021,74.533 82.636,74.979 82.636,76.097 82.245,77.383 82.133,79.06 82.413,80.68 83.14,81.909 84.369,82.3 85.598,82.469   86.659,82.747 86.994,83.921 86.827,85.094 86.437,86.101 86.547,86.548 86.268,86.883 83.418,87.944 83.195,88.503 82.245,88.95   81.351,89.677 80.4,90.348 79.395,90.962 78.947,91.13 78.779,91.968 78.277,92.471 76.154,93.03 75.26,93.254 74.645,93.477   74.478,93.309 73.415,93.142 72.298,93.03 72.019,92.526 71.571,92.136 71.236,91.577 70.229,91.466 69.504,91.241 69,90.962   68.834,90.18 67.995,89.732 66.988,89.509 66.375,89.063 65.871,88.56 66.485,89.118 66.038,88.95 65.2,88.895 64.978,89.342   63.636,89.174 62.462,88.56 62.239,88.056 61.792,87.721 59.612,87.051 59.222,86.38 58.327,86.323 56.931,86.771 56.036,87.497   54.304,88.279 53.13,88.56 51.229,89.063 50.112,90.459 49.33,92.471 49.498,92.751 49.833,93.254 49.442,97.5 48.491,97.109   46.48,96.83 44.469,96.83 42.345,96.552 40.221,96.327 39.104,95.823 38.656,95.433 37.762,94.259 37.092,93.309 35.919,93.03   35.137,92.639 33.292,90.85 32.175,90.124 30.776,90.124 29.101,90.906 28.095,90.85 25.915,90.124 23.68,88.895 19.6,86.938   18.874,85.766 17.478,84.48 15.912,83.753 14.738,82.747 13.956,81.741 13.174,80.567 12.168,79.507 12.113,78.78 13.509,79.338   15.298,78.668 16.192,77.271 17.085,75.147 18.371,72.353 19.769,69.168 21.333,66.933 21.78,66.597 20.998,65.367 20.998,65.089   21.668,63.188 22.674,60.563 23.288,58.327 23.903,57.321 24.854,58.83 25.468,60.004 25.747,60.785 25.692,58.83 24.965,57.152   23.735,55.924 23.513,54.527 24.573,53.186 25.077,51.396 24.742,50.056 25.077,48.771 24.742,48.771 24.686,48.659 23.568,48.156   22.004,46.927 20.606,45.362 19.769,43.463 19.321,41.45 19.881,40.054 20.104,38.489 19.937,37.426 22.73,37.595 21.501,36.756   19.265,36.253 17.588,35.806 18.092,34.632 18.482,33.571 18.147,33.236 15.745,32.621 16.415,32.286 15.577,31.783 13.9,31.839   13.286,31.448 13.174,31.057 13.006,30.666 12.001,29.492 10.938,28.654 9.15,27.48 8.425,26.865 7.195,26.642 5.629,26.865   5.294,25.58 4.009,23.624 4.959,23.456 6.188,23.4 6.133,22.673 5.128,22.507 5.016,21.835 5.798,21.221 6.523,21.277 6.971,20.662   4.233,20.271 4.4,19.601 5.294,18.483 6.971,18.092 8.425,17.924 10.604,18.203 11.776,18.483 12.614,18.427 13.733,18.483   14.013,17.812 14.906,17.533 15.41,17.924 16.136,18.036 17.588,18.427 18.204,19.209 19.099,20.662 20.159,22.003 21.501,21.835   22.674,21.78 22.953,22.003 23.735,22.227 24.742,22.06 25.859,22.06 26.307,22.395 26.585,23.064 28.151,23.4 28.877,22.842   28.095,22.06 28.095,20.439 28.486,18.874 28.374,17.477 28.542,15.8 27.871,14.906 27.704,13.677 28.095,11.05 29.269,11.721   31.95,12.28 32.341,12.616 31.894,13.677 32.51,14.683 32.957,16.024 33.683,16.08 35.694,16.862 37.314,17.812 38.656,18.036   39.886,18.036 41.283,17.421 44.077,17.645 44.3,17.309 43.63,16.917 41.842,16.471 41.897,15.8 43.07,14.403 45.251,13.509   47.206,13.286 49.609,13.007 51.454,12.113 53.409,10.827 53.688,10.044 53.242,9.43 54.472,5.686 55.701,3.506 57.433,3.115   59.222,2.892 60.451,2.947 62.015,2.835 "/></svg>