<svg xmlns="http://www.w3.org/2000/svg" xmlns:xlink="http://www.w3.org/1999/xlink" viewBox="0 0 16 20" version="1.1" x="0px" y="0px"><title>important exclamation</title><desc>Created with Sketch.</desc><g stroke="none" stroke-width="1" fill="none" fill-rule="evenodd"><g transform="translate(-112.000000, -284.000000)" fill="#000000"><path d="M120,284 C124.411,284 128,287.589 128,292 C128,296.411 124.411,300 120,300 C115.589,300 112,296.411 112,292 C112,287.589 115.589,284 120,284 Z M120,299 C123.859,299 127,295.859 127,292 C127,288.14 123.859,285 120,285 C116.14,285 113,288.14 113,292 C113,295.859 116.14,299 120,299 Z M120.3536,295.1495 C120.4516,295.2475 120.4996,295.3755 120.4996,295.5025 L120.4996,296.5005 C120.4996,296.6275 120.4516,296.7555 120.3536,296.8535 C120.1586,297.0485 119.8416,297.0485 119.6466,296.8535 C119.5486,296.7555 119.4996,296.6275 119.4996,296.5005 L119.4996,295.5025 C119.4996,295.3755 119.5486,295.2475 119.6466,295.1495 C119.8416,294.9545 120.1586,294.9545 120.3536,295.1495 Z M120.3536,287.1464 C120.4516,287.2444 120.4996,287.3724 120.4996,287.5004 L120.4996,293.5004 C120.4996,293.6284 120.4516,293.7554 120.3536,293.8534 C120.1586,294.0484 119.8416,294.0484 119.6466,293.8534 C119.5486,293.7554 119.4996,293.6284 119.4996,293.5004 L119.4996,287.5004 C119.4996,287.3724 119.5486,287.2444 119.6466,287.1464 C119.8416,286.9514 120.1586,286.9514 120.3536,287.1464 Z"/></g></g></svg>