
<?xml version="1.0" encoding="UTF-8"?>
<svg width="24px" height="24px" viewBox="0 0 24 24" version="1.1" xmlns="http://www.w3.org/2000/svg" xmlns:xlink="http://www.w3.org/1999/xlink">
    <!-- Generator: Sketch 52.2 (67145) - http://www.bohemiancoding.com/sketch -->
    <title>instagram</title>
    <desc>Created with Sketch.</desc>
    <defs>
        <path d="M7,0 L17,0 C20.8659932,-7.10171439e-16 24,3.13400675 24,7 L24,17 C24,20.8659932 20.8659932,24 17,24 L7,24 C3.13400675,24 4.73447626e-16,20.8659932 0,17 L0,7 C-4.73447626e-16,3.13400675 3.13400675,7.10171439e-16 7,0 Z" id="path-1"></path>
    </defs>
    <g id="instagram" stroke="none" stroke-width="1" fill="none" fill-rule="evenodd">
        <mask id="mask-2" fill="white">
            <use xlink:href="#path-1"></use>
        </mask>
        <use id="Mask" fill="#E95556" fill-rule="nonzero" xlink:href="#path-1"></use>
        <path d="M12.0007031,4.5 C9.96380691,4.5 9.70817925,4.50890625 8.90817092,4.5453125 C8.1097251,4.581875 7.56471942,4.70828125 7.08783946,4.89375 C6.59455307,5.0853125 6.17611121,5.3415625 5.75923187,5.75859375 C5.34204002,6.17546875 5.08578735,6.59390625 4.89359785,7.08703125 C4.70765841,7.5640625 4.58109459,8.10921875 4.54515672,8.90734375 C4.5093751,9.70734375 4.5,9.963125 4.5,12 C4.5,14.036875 4.50906259,14.2917187 4.54531297,15.0917187 C4.5820321,15.8901562 4.70843967,16.4351562 4.8937541,16.9120312 C5.08547485,17.4053125 5.34172752,17.82375 5.75876311,18.240625 C6.1754862,18.6578125 6.59392806,18.9146875 7.08690195,19.10625 C7.56409442,19.2917188 8.10925635,19.418125 8.90754591,19.4546875 C9.70755425,19.4910937 9.96302566,19.5 11.9997656,19.5 C14.0368181,19.5 14.2916645,19.4910937 15.0916728,19.4546875 C15.8901186,19.418125 16.4357493,19.2917188 16.9129418,19.10625 C17.4060719,18.9146875 17.8238888,18.6578125 18.2406119,18.240625 C18.6578037,17.82375 18.9140564,17.4053125 19.1062459,16.9121875 C19.2906228,16.4351562 19.4171866,15.89 19.454687,15.091875 C19.4906249,14.291875 19.5,14.036875 19.5,12 C19.5,9.963125 19.4906249,9.7075 19.454687,8.9075 C19.4171866,8.1090625 19.2906228,7.5640625 19.1062459,7.0871875 C18.9140564,6.59390625 18.6578037,6.17546875 18.2406119,5.75859375 C17.82342,5.34140625 17.4062282,5.08515625 16.912473,4.89375 C16.4343431,4.70828125 15.8890249,4.581875 15.0905791,4.5453125 C14.2905707,4.50890625 14.0358806,4.5 11.9983594,4.5 L12.0007031,4.5 Z M11.3278836,5.8515625 C11.5275732,5.85125 11.750388,5.8515625 12.0007031,5.8515625 C14.003224,5.8515625 14.2405702,5.85875 15.0313597,5.8946875 C15.7626173,5.928125 16.1594965,6.0503125 16.4238742,6.15296875 C16.7738779,6.28890625 17.0234117,6.45140625 17.2857582,6.71390625 C17.5482609,6.97640625 17.7107626,7.22640625 17.847014,7.57640625 C17.9496714,7.84046875 18.0720164,8.23734375 18.105298,8.96859375 C18.1412358,9.75921875 18.1490484,9.99671875 18.1490484,11.9982813 C18.1490484,13.9998438 18.1412358,14.2373438 18.105298,15.0279688 C18.0718601,15.7592188 17.9496714,16.1560938 17.847014,16.4201563 C17.7110751,16.7701563 17.5482609,17.019375 17.2857582,17.2817188 C17.0232555,17.5442188 16.7740341,17.7067188 16.4238742,17.8426563 C16.159809,17.9457813 15.7626173,18.0676563 15.0313597,18.1010938 C14.2407265,18.1370313 14.003224,18.1448438 12.0007031,18.1448438 C9.99802602,18.1448438 9.7606798,18.1370313 8.97004656,18.1010938 C8.23878895,18.0673438 7.84190981,17.9451563 7.57737581,17.8425 C7.22737216,17.7065625 6.97736956,17.5440625 6.71486682,17.2815625 C6.45236409,17.0190625 6.28986239,16.7696875 6.15361098,16.4195313 C6.05095366,16.1554688 5.92860863,15.7585938 5.89532703,15.0273438 C5.85938916,14.2367188 5.85220159,13.9992188 5.85220159,11.9964063 C5.85220159,9.99359375 5.85938916,9.75734375 5.89532703,8.96671875 C5.92876488,8.23546875 6.05095366,7.83859375 6.15361098,7.57421875 C6.28954989,7.22421875 6.45236409,6.97421875 6.71486682,6.71171875 C6.97736956,6.44921875 7.22737216,6.28671875 7.57737581,6.15046875 C7.84175356,6.04734375 8.23878895,5.92546875 8.97004656,5.891875 C9.66192877,5.860625 9.93005656,5.85125 11.3278836,5.8496875 L11.3278836,5.8515625 Z M16.0041823,7.096875 C15.5073022,7.096875 15.104173,7.49953125 15.104173,7.9965625 C15.104173,8.4934375 15.5073022,8.8965625 16.0041823,8.8965625 C16.5010625,8.8965625 16.9041917,8.4934375 16.9041917,7.9965625 C16.9041917,7.4996875 16.5010625,7.0965625 16.0041823,7.0965625 L16.0041823,7.096875 Z M12.0007031,8.1484375 C9.87364973,8.1484375 8.14910051,9.87296875 8.14910051,12 C8.14910051,14.1270313 9.87364973,15.8507813 12.0007031,15.8507813 C14.1277565,15.8507813 15.8516807,14.1270313 15.8516807,12 C15.8516807,9.87296875 14.1276003,8.1484375 12.0005469,8.1484375 L12.0007031,8.1484375 Z M12.0007031,9.5 C13.3813425,9.5 14.5007292,10.6192187 14.5007292,12 C14.5007292,13.380625 13.3813425,14.5 12.0007031,14.5 C10.6199075,14.5 9.50067709,13.380625 9.50067709,12 C9.50067709,10.6192187 10.6199075,9.5 12.0007031,9.5 L12.0007031,9.5 Z" id="Shape" fill="#FFFFFF" mask="url(#mask-2)"></path>
    </g>
</svg>