
<?xml version="1.0" encoding="UTF-8"?>
<svg width="116px" height="40px" viewBox="0 0 116 40" version="1.1" xmlns="http://www.w3.org/2000/svg" xmlns:xlink="http://www.w3.org/1999/xlink">
    <!-- Generator: Sketch 52.2 (67145) - http://www.bohemiancoding.com/sketch -->
    <title>logo_white</title>
    <desc>Created with Sketch.</desc>
    <g id="logo_white" stroke="none" stroke-width="1" fill="none" fill-rule="evenodd">
        <g id="Group" fill="#FFFFFF">
            <path d="M79.2029347,29.7414545 C79.1094838,30.3974578 78.87586,31.170593 78.5020563,32.0608831 C78.1282526,32.9511733 77.6493239,33.8063076 77.0652556,34.6263117 C76.4811874,35.4463158 75.8036784,36.1374517 75.0327083,36.6997403 C74.2617383,37.2620288 73.4090114,37.5431688 72.4745023,37.5431688 C71.0727385,37.5431688 69.8462136,37.0043171 68.7948908,35.9265974 C67.7435679,34.8488777 67.1011025,33.3260358 66.8674752,31.358026 C66.5871225,32.107744 66.2600492,32.9745925 65.8862455,33.9585974 C65.5124418,34.9426023 65.0451942,35.8563075 64.4844887,36.6997403 C63.9237832,37.543173 63.2813178,38.2577373 62.5570732,38.8434545 C61.8328286,39.4291718 60.9801018,39.722026 59.9988671,39.722026 C59.7185144,39.722026 59.508253,39.6985976 59.3680766,39.6517403 C59.2279002,39.6048829 59.0760447,39.546312 58.9125056,39.476026 C58.7489665,39.4057399 58.5620675,39.3471691 58.3518029,39.3003117 C58.1415384,39.2534543 57.8495086,39.230026 57.475705,39.230026 C56.3542939,39.230026 55.4081176,38.8668867 54.6371475,38.1405974 C53.8661775,37.4143081 53.2470744,36.4888887 52.7798198,35.3643117 C52.3125652,34.2397346 51.9738107,33.0097469 51.7635462,31.6743117 C51.5532816,30.3388764 51.4481509,29.0854604 51.4481509,27.914026 C51.4481509,25.1025833 51.6000064,22.4317529 51.9037218,19.9014545 C52.2074373,17.3711562 52.7097285,15.13375 53.4106104,13.1891688 C54.1114922,11.2445877 55.022625,9.69831743 56.144036,8.55031169 C57.265447,7.40230595 58.620465,6.82831169 60.2091306,6.82831169 C61.1436398,6.82831169 61.8561924,6.91031087 62.3468097,7.07431169 C62.837427,7.23831251 63.2929934,7.42573921 63.7135225,7.6365974 C64.1340517,7.8474556 64.589618,8.0700248 65.0802354,8.30431169 C65.5708527,8.53859857 66.2600429,8.72602527 67.1478266,8.8665974 C68.1290612,9.42888593 68.8182514,10.0965935 69.2154178,10.8697403 C69.6125842,11.642887 69.8695704,12.474593 69.986384,13.3648831 C70.1031977,14.2551733 70.1382412,15.1805926 70.0915158,16.1411688 C70.0447903,17.1017451 70.0915151,18.0505927 70.2316914,18.9877403 C70.2316914,19.0345976 70.3368221,19.1048826 70.5470867,19.1985974 C70.7573513,19.2923122 71.0026563,19.3977397 71.283009,19.5148831 C71.5633618,19.6320266 71.8086667,19.7960249 72.0189313,20.0068831 C72.2291959,20.2177413 72.3343266,20.4871672 72.3343266,20.8151688 L72.3343266,21.0963117 C71.867072,22.3146035 71.5867234,23.392307 71.4932725,24.3294545 C71.3998216,25.2666021 71.3530968,26.3911623 71.3530968,27.7031688 C71.3530968,28.3591721 71.3881404,29.0737364 71.4582286,29.8468831 C71.5283168,30.6200298 71.6451287,31.3463083 71.8086678,32.0257403 C71.9722069,32.7051722 72.2175119,33.2674523 72.5445901,33.7125974 C72.8716683,34.1577425 73.2921911,34.3803117 73.8061712,34.3803117 C74.3668767,34.3803117 74.8691678,34.0991716 75.3130597,33.5368831 C75.7569515,32.9745946 76.1307496,32.3303153 76.4344651,31.604026 C76.7381806,30.8777366 76.9951667,30.139744 77.2054313,29.390026 C77.4156959,28.6403079 77.544189,28.0780278 77.5909144,27.7031688 C77.6843653,27.1408803 77.9179891,26.8597403 78.2917928,26.8597403 C78.5254201,26.8597403 78.7473627,26.9885961 78.9576273,27.2463117 C79.1678918,27.5040273 79.2730225,27.9608798 79.2730225,28.6168831 L79.2730225,29.144026 C79.2730225,29.3080268 79.2496601,29.5071677 79.2029347,29.7414545 Z M66.2366847,18.3551688 C66.2366847,17.8397377 66.1899599,17.2306009 66.096509,16.5277403 C66.0030581,15.8248796 65.8395214,15.1688862 65.6058941,14.5597403 C65.3722668,13.9505944 65.0218312,13.4351709 64.5545766,13.0134545 C64.087322,12.5917382 63.4565378,12.3808831 62.662205,12.3808831 C61.3538921,12.3808831 60.2909039,12.9783057 59.4732083,14.1731688 C58.6555128,15.3680319 58.0130474,16.7737322 57.5457928,18.3903117 C57.0785382,20.0068912 56.7748273,21.6703031 56.6346509,23.3805974 C56.4944745,25.0908917 56.4243874,26.4380211 56.4243874,27.422026 C56.4243874,28.171744 56.459431,29.073735 56.5295191,30.128026 C56.5996073,31.182317 56.7281004,32.1780213 56.9150023,33.1151688 C57.1019041,34.0523164 57.3705714,34.8488798 57.7210124,35.5048831 C58.0714533,36.1608864 58.5270197,36.4888831 59.0877252,36.4888831 C60.4427635,36.4888831 61.4823894,35.9617455 62.206634,34.9074545 C62.9308786,33.8531636 63.4798945,32.5411767 63.8536982,30.9714545 C64.2275019,29.4017324 64.4961692,27.7148921 64.6597083,25.9108831 C64.8232474,24.1068741 64.9751029,22.4551763 65.1152793,20.9557403 C65.2087302,20.1591648 65.4189916,19.6554556 65.7460698,19.4445974 C66.073148,19.2337392 66.2366847,19.081455 66.2366847,18.9877403 L66.2366847,18.3551688 Z" id="Combined-Shape"></path>
            <path d="M10.1664144,4.86031169 C10.1664144,5.18831333 10.0028778,5.45773921 9.67579955,5.6685974 C9.34872134,5.8794556 8.98660446,6.03173979 8.58943806,6.12545455 C8.19227166,6.2191693 7.80679241,6.28945431 7.43298874,6.33631169 C7.05918507,6.38316907 6.82556128,6.4065974 6.73211036,6.4065974 C5.75087572,6.4065974 4.781337,6.12545736 3.82346509,5.56316883 C2.86559318,5.00088031 1.98950397,4.11060349 1.19517117,2.89231169 C1.10172025,2.75173956 0.96154598,2.56431286 0.774644144,2.33002597 C0.587742309,2.09573909 0.494292793,1.93174073 0.494292793,1.83802597 C0.494292793,1.60373909 0.669510635,1.39288405 1.01995158,1.20545455 C1.37039252,1.01802504 1.76755296,0.83059834 2.21144482,0.643168831 C2.65533668,0.455739323 3.0758595,0.3151693 3.4730259,0.221454545 C3.8701923,0.127739791 4.13885966,0.0808831169 4.27903604,0.0808831169 C5.21354521,0.0808831169 6.13635918,0.315166488 7.04750563,0.78374026 C7.95865208,1.25231403 8.69456702,2.11916251 9.25527252,3.38431169 C9.34872344,3.52488382 9.52394128,3.77088136 9.78093131,4.12231169 C10.0379213,4.47374202 10.1664144,4.71973956 10.1664144,4.86031169 Z M16.2116198,30.6317909 C15.878336,31.4918481 15.4636086,32.307922 14.9674313,33.080026 C14.2899122,34.134317 13.4371853,35.0011654 12.4092252,35.6805974 C11.3812651,36.3600294 10.1196967,36.6997403 8.62448198,36.6997403 C7.45634551,36.6997403 6.26486418,36.3014585 5.05000225,35.5048831 C3.83514032,34.6614503 3.00577587,33.5603185 2.56188401,32.2014545 C2.11799215,30.8425906 1.89604955,29.5306037 1.89604955,28.2654545 C1.89604955,27.8905955 1.91941193,27.3283154 1.96613739,26.5785974 C2.01286285,25.8288794 2.03622523,24.9151742 2.03622523,23.8374545 L2.03622523,16.106026 C2.03622523,15.731167 2.02454404,15.3328852 2.00118131,14.9111688 C1.97781858,14.4894524 1.91941263,14.0911707 1.82596171,13.7163117 C1.77923625,13.5288822 1.69746793,13.3180271 1.58065428,13.0837403 C1.46384063,12.8494534 1.40543468,12.685455 1.40543468,12.5917403 C1.40543468,12.4043108 1.52224658,12.2520266 1.75587387,12.1348831 C1.98950117,12.0177397 2.24648734,11.9357405 2.52684009,11.8888831 C2.80719284,11.8420257 3.0758602,11.8185974 3.33285023,11.8185974 L3.71833333,11.8185974 C3.85850971,11.8185974 4.18558302,11.8303116 4.69956306,11.8537403 C5.21354311,11.8771689 5.75087783,11.9591681 6.31158333,12.0997403 C6.87228884,12.2403124 7.37457999,12.4628816 7.81847185,12.7674545 C8.26236371,13.0720275 8.48430631,13.5054517 8.48430631,14.0677403 C8.53103177,14.2083124 8.44926344,14.4660241 8.23899887,14.8408831 C8.02873431,15.2157421 7.83015409,15.8717356 7.64325225,16.8088831 C7.59652679,17.1837421 7.54980204,17.523453 7.50307658,17.828026 C7.45635112,18.1325989 7.40962636,18.4723098 7.3629009,18.8471688 C7.31617544,19.2220278 7.26945068,19.6788804 7.22272523,20.2177403 C7.17599977,20.7566001 7.12927501,21.447736 7.08254955,22.2911688 L7.08254955,26.5083117 C7.08254955,27.2580297 7.10591193,28.0194507 7.15263739,28.7925974 C7.19936285,29.5657441 7.30449355,30.2685942 7.46803266,30.9011688 C7.63157176,31.5337434 7.90023912,32.0491668 8.27404279,32.4474545 C8.64784646,32.8457423 9.13845642,33.0448831 9.74588739,33.0448831 C10.6336711,33.0448831 11.3345425,32.7871714 11.8485225,32.2717403 C12.3625026,31.7563091 12.759663,31.3111707 13.0400158,30.9363117 C13.5539958,30.233451 13.9511563,29.3548884 14.231509,28.3005974 C14.5118618,27.2463064 14.7688479,26.1568887 15.0024752,25.0323117 L15.1426509,24.3294545 C15.2731553,23.6750906 15.6466535,23.3253379 16.2631558,23.2801881 C16.2738886,22.8668193 16.28587,22.4434321 16.2991002,22.010026 C16.3691884,19.7140145 16.4509567,17.0197557 16.5444077,13.9271688 C16.5444077,13.5054524 16.5210453,12.9548865 16.4743198,12.2754545 C16.4275944,11.5960226 16.404232,11.209455 16.404232,11.1157403 C16.404232,10.7408812 16.5560874,10.518312 16.8598029,10.448026 C17.1635184,10.3777399 17.385461,10.3425974 17.5256374,10.3425974 C17.8527156,10.3425974 18.2381949,10.3777399 18.6820867,10.448026 C19.1259786,10.518312 19.5698638,10.6003112 20.0137556,10.694026 C20.4576475,10.7877407 20.8664891,10.8931682 21.2402928,11.0103117 C21.6140965,11.1274551 21.8710826,11.2328826 22.011259,11.3265974 L22.011259,28.2654545 C22.2448863,27.328307 22.5135537,26.2388893 22.8172691,24.9971688 C23.1209846,23.7554483 23.4714203,22.5254606 23.8685867,21.3071688 C24.2657531,20.088877 24.6979571,18.9643168 25.1652117,17.9334545 C25.6324663,16.9025922 26.1230763,16.1528855 26.6370563,15.6843117 C26.8239581,15.5437396 27.1743938,15.438312 27.6883739,15.368026 C28.2023539,15.2977399 28.6228767,15.2625974 28.949955,15.2625974 C29.1835822,15.2625974 29.475612,15.2977399 29.8260529,15.368026 C30.1764939,15.438312 30.5152484,15.5437396 30.8423266,15.6843117 C31.1694048,15.8248838 31.4614345,16.0005963 31.7184245,16.2114545 C31.9754146,16.4223127 32.12727,16.6683103 32.1739955,16.9494545 L32.1739955,28.9683117 C32.1739955,29.249456 32.2207203,29.390026 32.3141712,29.390026 C32.4076221,29.390026 32.6762894,28.7574609 33.1201813,27.4923117 C33.5640732,26.2271625 34.0897267,24.7277489 34.6971577,22.994026 C35.3045886,21.260303 35.9587352,19.4797494 36.6596171,17.6523117 C37.360499,15.824874 37.9912832,14.3723171 38.5519887,13.2945974 C38.6454397,13.1071679 38.9608318,13.0017404 39.4981745,12.9783117 C40.0355173,12.954883 40.5144461,12.9431688 40.9349752,12.9431688 C41.2620534,12.9431688 41.7059386,13.0485963 42.2666441,13.2594545 C42.8273497,13.4703127 43.3763656,13.763167 43.9137083,14.138026 C44.4510511,14.512885 44.9182987,14.9345951 45.3154651,15.4031688 C45.7126315,15.8717426 45.9112117,16.3637377 45.9112117,16.8791688 C45.9112117,16.9728836 45.7710374,17.2423095 45.4906847,17.6874545 C45.2103319,18.1325996 45.0234329,18.5894522 44.929982,19.058026 C44.6029038,20.3700325 44.3809612,21.6585911 44.2641475,22.9237403 C44.1473339,24.1888894 44.0889279,25.8054447 44.0889279,27.7734545 C44.0889279,28.6168873 44.1239715,29.4603075 44.1940597,30.3037403 C44.2641479,31.147173 44.3809598,31.908594 44.5444989,32.588026 C44.708038,33.2674579 44.9299806,33.8180239 45.2103333,34.2397403 C45.4906861,34.6614567 45.8644842,34.8723117 46.3317387,34.8723117 C46.9858952,34.8723117 47.5699546,34.6497425 48.0839347,34.2045974 C48.5979147,33.7594523 49.0417999,33.1620297 49.4156036,32.4123117 C49.7894073,31.6625937 50.1164806,30.784031 50.3968333,29.7765974 C50.6771861,28.7691638 50.9108099,27.7266028 51.0977117,26.6488831 C51.331339,25.5243061 51.7518618,24.962026 52.3592928,24.962026 C52.7330965,24.962026 52.9784014,25.0557393 53.0952151,25.2431688 C53.2120287,25.4305983 53.2704347,25.8523084 53.2704347,26.5083117 C53.2704347,26.8831707 53.2470723,27.1408824 53.2003468,27.2814545 C53.1536214,27.8906004 52.9550412,28.8394481 52.6046002,30.128026 C52.2541593,31.4166038 51.7635493,32.7051624 51.1327556,33.9937403 C50.5019619,35.2823181 49.7193222,36.4068783 48.7848131,37.3674545 C47.8503039,38.3280308 46.7756345,38.8083117 45.5607725,38.8083117 C44.1122833,38.8083117 42.920802,38.4686008 41.9862928,37.7891688 C41.0517836,37.1097369 40.3275499,36.1960317 39.8135698,35.048026 C39.2995898,33.9000202 38.9374729,32.5763192 38.7272083,31.0768831 C38.5169438,29.577447 38.4118131,28.0077485 38.4118131,26.3677403 L38.4118131,25.8757403 L38.8323401,20.1123117 C38.1781837,21.3774609 37.5707618,22.7128761 37.0100563,24.1185974 C36.4493508,25.5243187 36.028828,26.6254506 35.7484752,27.422026 C35.7017498,27.6563129 35.5732567,28.1483079 35.3629921,28.898026 C35.1527276,29.647744 34.9191038,30.47945 34.6621137,31.3931688 C34.4051237,32.3068877 34.1831811,33.2088787 33.9962793,34.0991688 C33.8093774,34.989459 33.7159279,35.7157374 33.7159279,36.278026 C33.7159279,36.5123129 33.5056665,36.7231679 33.0851374,36.9105974 C32.6646083,37.0980269 32.1272735,37.1917403 31.4731171,37.1917403 C30.445157,37.1917403 29.6274738,37.0511702 29.0200428,36.770026 C28.4126118,36.4888817 27.9570454,36.0320291 27.65333,35.3994545 C27.3496145,34.76688 27.1627154,33.935174 27.0926273,32.9043117 C27.0225391,31.8734494 26.9874955,30.6317475 26.9874955,29.1791688 L26.9874955,23.9077403 C26.9874955,23.5328812 26.9758143,23.1580278 26.9524516,22.7831688 C26.9290888,22.4083098 26.8473205,22.1740264 26.7071441,22.0803117 C26.4735168,22.1740264 26.1814871,22.7831632 25.8310462,23.9077403 C25.4806052,25.0323173 25.1535319,26.402875 24.8498164,28.0194545 C24.546101,29.6360341 24.2774336,31.3345885 24.0438063,33.1151688 C23.810179,34.8957492 23.6933671,36.4888761 23.6933671,37.8945974 C23.6933671,38.4100286 23.4246998,38.7145969 22.887357,38.8083117 C22.3500142,38.9020264 21.7542735,38.9488831 21.1001171,38.9488831 C20.9132153,38.9488831 20.5978232,38.9137406 20.1539313,38.8434545 C19.7100394,38.7731685 19.2661542,38.6911693 18.8222624,38.5974545 C18.3783705,38.5037398 17.9695289,38.3748839 17.5957252,38.2108831 C17.2219216,38.0468823 16.9882978,37.8477414 16.8948468,37.6134545 C16.6612196,37.0043086 16.4860017,35.9968901 16.3691881,34.5911688 C16.2894504,33.6316158 16.2369279,32.31183 16.2116198,30.6317909 Z M99.5233508,24.6704079 C99.526722,24.4045901 99.5284077,24.1269392 99.5284077,23.8374545 L99.5284077,16.106026 C99.5284077,15.731167 99.5167265,15.3328852 99.4933637,14.9111688 C99.470001,14.4894524 99.4115951,14.0911707 99.3181441,13.7163117 C99.2714187,13.5288822 99.1896504,13.3180271 99.0728367,13.0837403 C98.9560231,12.8494534 98.8976171,12.685455 98.8976171,12.5917403 C98.8976171,12.4043108 99.014429,12.2520266 99.2480563,12.1348831 C99.4816836,12.0177397 99.7386698,11.9357405 100.019023,11.8888831 C100.299375,11.8420257 100.568043,11.8185974 100.825033,11.8185974 L101.210516,11.8185974 C101.350692,11.8185974 101.677765,11.8303116 102.191745,11.8537403 C102.705726,11.8771689 103.24306,11.9591681 103.803766,12.0997403 C104.364471,12.2403124 104.866762,12.4628816 105.310654,12.7674545 C105.754546,13.0720275 105.976489,13.5054517 105.976489,14.0677403 C106.023214,14.2083124 105.941446,14.4660241 105.731181,14.8408831 C105.520917,15.2157421 105.322337,15.8717356 105.135435,16.8088831 C105.088709,17.1837421 105.041984,17.523453 104.995259,17.828026 C104.948534,18.1325989 104.901809,18.4723098 104.855083,18.8471688 C104.808358,19.2220278 104.761633,19.6788804 104.714908,20.2177403 C104.668182,20.7566001 104.621457,21.447736 104.574732,22.2911688 L104.574732,26.5083117 C104.574732,27.2580297 104.598094,28.0194507 104.64482,28.7925974 C104.691545,29.5657441 104.796676,30.2685942 104.960215,30.9011688 C105.123754,31.5337434 105.392422,32.0491668 105.766225,32.4474545 C106.140029,32.8457423 106.630639,33.0448831 107.23807,33.0448831 C108.125854,33.0448831 108.826725,32.7871714 109.340705,32.2717403 C109.854685,31.7563091 110.251845,31.3111707 110.532198,30.9363117 C111.046178,30.233451 111.443339,29.3548884 111.723691,28.3005974 C112.004044,27.2463064 112.26103,26.1568887 112.494658,25.0323117 L112.634833,24.3294545 C112.77501,23.6265939 113.195533,23.2751688 113.896414,23.2751688 C114.597296,23.2751688 114.947732,23.7671639 114.947732,24.7511688 L114.947732,25.1025974 L114.807556,26.1568831 C114.66738,27.2814602 114.410394,28.452877 114.03659,29.6711688 C113.662786,30.8894606 113.137133,32.025735 112.459614,33.080026 C111.782095,34.134317 110.929368,35.0011654 109.901408,35.6805974 C108.873448,36.3600294 107.611879,36.6997403 106.116664,36.6997403 C104.948528,36.6997403 103.757047,36.3014585 102.542185,35.5048831 C101.327323,34.6614503 100.497958,33.5603185 100.054066,32.2014545 C99.788624,31.388869 99.6025486,30.5930462 99.4958388,29.8139778 C99.2010791,30.8021375 98.8030925,31.7385276 98.3018705,32.6231688 C97.7178023,33.6540311 96.9585249,34.5208796 96.0240158,35.2237403 C95.0895066,35.9266009 93.94475,36.278026 92.5897117,36.278026 C90.4870661,36.278026 89.1437293,35.516605 88.559661,33.9937403 C87.9755928,32.4708755 87.6835631,30.210041 87.6835631,27.2111688 L87.8237387,22.0803117 C87.1228569,23.0643166 86.5504786,24.1537343 86.1065867,25.3485974 C85.6626949,26.5434605 85.2772156,27.7851624 84.9501374,29.0737403 C84.6230592,30.3623181 84.3543918,31.6508767 84.1441273,32.9394545 C83.9338627,34.2280324 83.7119201,35.4580201 83.4782928,36.6294545 C83.3848419,36.9105988 83.022725,37.0980255 82.3919313,37.1917403 C81.7611376,37.285455 81.3055712,37.3323117 81.0252185,37.3323117 C80.1841602,37.3323117 79.49497,37.285455 78.9576273,37.1917403 C78.4202845,37.0980255 78.0114428,36.8754563 77.7310901,36.524026 C77.4507373,36.1725956 77.2404759,35.6337439 77.1002995,34.9074545 C76.9601232,34.1811652 76.8433113,33.2088892 76.7498604,31.9905974 L77.6610023,11.1157403 C77.6610023,10.5065944 77.9880756,10.202026 78.642232,10.202026 C78.8758593,10.202026 79.2029326,10.2371685 79.6234617,10.3074545 C80.0439908,10.3777406 80.487876,10.4831681 80.9551306,10.6237403 C81.4223852,10.7643124 81.8195457,10.9400249 82.1466239,11.1508831 C82.4737021,11.3617413 82.6372387,11.6077389 82.6372387,11.8888831 L82.6372387,26.1568831 C82.6839642,26.1100257 82.7540513,25.922599 82.8475023,25.5945974 C83.1745805,24.7511646 83.5717409,23.7086036 84.0389955,22.4668831 C84.5062501,21.2251626 85.0202224,20.0420316 85.5809279,18.9174545 C86.1416334,17.7928775 86.7373741,16.8323157 87.3681678,16.0357403 C87.9989615,15.2391648 88.6414269,14.8408831 89.2955833,14.8408831 C90.1366416,14.8408831 90.779107,15.040024 91.2229989,15.4383117 C91.6668907,15.8365994 92.0056452,16.3403086 92.2392725,16.9494545 C92.4728998,17.5586004 92.6130741,18.2145939 92.6597995,18.9174545 C92.706525,19.6203152 92.7298874,20.299737 92.7298874,20.9557403 C92.7298874,21.424314 92.6831626,22.1974492 92.5897117,23.2751688 C92.4962608,24.3528885 92.449536,25.9694438 92.449536,28.1248831 C92.449536,29.3431749 92.5663479,30.4443068 92.7999752,31.4283117 C93.0336025,32.4123166 93.5008501,32.9043117 94.201732,32.9043117 C94.715712,32.9043117 95.1829596,32.6700283 95.6034887,32.2014545 C96.0240179,31.7328808 96.4094971,31.1471723 96.7599381,30.4443117 C97.110379,29.741451 97.4024087,28.9917442 97.636036,28.1951688 C97.8696633,27.3985934 98.0098376,26.6488866 98.0565631,25.946026 C98.1032885,25.0557358 98.4537242,24.6105974 99.1078806,24.6105974 C99.2662521,24.6105974 99.404742,24.6305341 99.5233508,24.6704079 Z M107.658597,4.86031169 C107.658597,5.18831333 107.49506,5.45773921 107.167982,5.6685974 C106.840904,5.8794556 106.478787,6.03173979 106.08162,6.12545455 C105.684454,6.2191693 105.298975,6.28945431 104.925171,6.33631169 C104.551368,6.38316907 104.317744,6.4065974 104.224293,6.4065974 C103.243058,6.4065974 102.273519,6.12545736 101.315648,5.56316883 C100.357776,5.00088031 99.4816864,4.11060349 98.6873536,2.89231169 C98.5939027,2.75173956 98.4537284,2.56431286 98.2668266,2.33002597 C98.0799247,2.09573909 97.9864752,1.93174073 97.9864752,1.83802597 C97.9864752,1.60373909 98.1616931,1.39288405 98.512134,1.20545455 C98.862575,1.01802504 99.2597354,0.83059834 99.7036273,0.643168831 C100.147519,0.455739323 100.568042,0.3151693 100.965208,0.221454545 C101.362375,0.127739791 101.631042,0.0808831169 101.771218,0.0808831169 C102.705728,0.0808831169 103.628542,0.315166488 104.539688,0.78374026 C105.450835,1.25231403 106.186749,2.11916251 106.747455,3.38431169 C106.840906,3.52488382 107.016124,3.77088136 107.273114,4.12231169 C107.530104,4.47374202 107.658597,4.71973956 107.658597,4.86031169 Z" id="-imani"></path>
        </g>
    </g>
</svg>