
<?xml version="1.0" encoding="UTF-8"?>
<svg width="32px" height="36px" viewBox="0 0 32 36" version="1.1" xmlns="http://www.w3.org/2000/svg" xmlns:xlink="http://www.w3.org/1999/xlink">
    <!-- Generator: Sketch 52.2 (67145) - http://www.bohemiancoding.com/sketch -->
    <title>playsvg</title>
    <desc>Created with Sketch.</desc>
    <g id="UI-Design" stroke="none" stroke-width="1" fill="none" fill-rule="evenodd">
        <g id="Homepage-MPV" transform="translate(-219.000000, -2635.000000)" fill="#FFFFFF" fill-rule="nonzero">
            <g id="Group" transform="translate(190.000000, 2611.000000)">
                <path d="M56.8337465,42.2830302 C56.9456307,42.2176012 57,42.1254868 57,42.0048949 C57,41.8842334 56.9456857,41.7922077 56.8391813,41.729932 L33.3734489,28.056848 C33.2838512,28.0110411 33.2345102,27.9994086 33.2082952,28.0000028 C33.1059754,28.00232 33.0058581,28.1037523 33,28.3243554 L32.9990167,55.5670889 C33.007739,55.9603903 33.1502968,56.0613193 33.3793387,55.9494249 L56.8337465,42.2830302 Z M33.1176471,24.0010301 C33.8429176,23.9845898 34.5924706,24.164628 35.3235765,24.5636497 L58.8529882,38.2738386 C60.1336471,39.0226083 61,40.3971531 61,42.0048949 C61,43.6126366 60.1335529,44.9870867 58.8529882,45.7359511 L35.3235765,59.4460548 C32.3994353,61.0421414 29.0743529,59.008467 29,55.6557754 L29,28.3243554 C29.0556235,25.8096945 30.9418353,24.0503037 33.1176471,24.0010301 Z" id="playsvg"></path>
            </g>
        </g>
    </g>
</svg>