<svg xmlns="http://www.w3.org/2000/svg" viewBox="0 0 94 111.25" x="0px" y="0px"><polygon fill="#000000" fill-rule="evenodd" points="1086.366 198.835 1103.973 201.242 1116.892 200.038 1122.393 203.23 1123.877 212.193 1126.999 220.106 1126.999 227.222 1123.103 229.094 1120.488 233.438 1124.295 235.877 1124.518 240.834 1123.103 241.813 1124.518 248.199 1128 253.784 1128 260.727 1125.196 261.64 1114.783 274.023 1115.611 279.036 1116.892 280.792 1116.892 282 1108.876 279.036 1107.908 276.698 1100.86 275.248 1098.869 277.826 1096.69 275.89 1091.289 276.698 1090.676 279.036 1087.935 279.036 1087.935 275.89 1084.735 273.092 1080.026 275.89 1078.512 273.092 1076.198 268.807 1071.487 266.596 1069.451 267.788 1067.136 265.075 1068.002 262.693 1059.875 260.727 1061.048 264.064 1058.233 265.075 1053.553 260.727 1056.13 258.827 1053.553 257.399 1045.316 255.374 1044.474 252.549 1041.565 252.549 1042.445 246.145 1039.903 244.78 1038.679 240.418 1039.903 236.968 1038.261 233.438 1037.843 231.06 1038.679 229.094 1034 224.993 1034 222.884 1036.309 221.031 1036.309 217.05 1034.737 207.714 1053.553 201.242 1056.13 197.404 1061.048 196.743 1063.561 194.335 1074.485 193 1076.198 200.038 1082.04 201.242" transform="translate(-1034 -193)"/></svg>