<svg xmlns="http://www.w3.org/2000/svg" xmlns:xlink="http://www.w3.org/1999/xlink" version="1.1" x="0px" y="0px" viewBox="0 0 100 100" enable-background="new 0 0 100 100" xml:space="preserve"><path d="M31.011,56.456c1.654,0,3-1.346,3-3.001c0-1.653-1.346-3.001-3-3.001c-1.654,0-3,1.346-3,3.001  C28.01,55.11,29.357,56.456,31.011,56.456z"/><path d="M14.877,52.475c-2.107,0.354-3.175,1.618-3.175,3.754v11.582c0,2.138,1.068,3.399,3.175,3.754l3.607,0.608  c1.492,3.382,3.812,6.5,6.757,9.081l2.342,10.657C28.04,93.989,29.296,95,31.425,95h6.007c2.098,0,3.378-0.986,3.912-3.016  l0.853-3.232c3.179,0.424,6.397,0.411,9.542-0.027l0.701,3.187c0.457,2.079,1.713,3.09,3.843,3.09h6.006  c2.101,0,3.38-0.987,3.912-3.015l3.009-11.403c5.165-4.853,8.006-11.135,8.006-17.733c0-0.642-0.035-1.275-0.089-1.906  c1.951-0.491,3.562-1.067,4.853-1.696c1.328,0.604,2.971,0.976,4.946,1.001c0.007,0,0.013,0,0.019,0  c0.742,0,1.349-0.598,1.356-1.341c0.011-0.749-0.591-1.364-1.341-1.374c-0.741-0.01-1.418-0.077-2.027-0.191  c2.526-2.208,2.606-4.49,2.506-5.43c-0.263-2.453-2.271-4.303-4.67-4.303c-2.91,0-5.119,2.313-5.139,5.379  c-0.01,1.529,0.559,3.119,1.76,4.42c-0.781,0.301-1.668,0.58-2.652,0.84c-2.528-12.268-14.961-21.613-29.88-21.613  c-3.995,0-7.87,0.66-11.533,1.961c-4.599-4.111-10.549-4.744-13.776-4.744l-0.343,0.003c-1.551,0.022-2.072,0.904-2.224,1.281  c-0.156,0.387-0.393,1.41,0.765,2.557c1.491,1.475,3.971,4.362,4.495,7.677c-1.983,1.912-3.617,4.042-4.871,6.347L14.877,52.475z   M82.766,50.324c0.992,0,1.858,0.822,1.971,1.875c0.123,1.15-0.629,2.607-2.738,3.932c-1.132-0.854-1.661-1.998-1.654-3.128  C80.352,51.712,81.113,50.324,82.766,50.324z M21.468,53.559c1.243-2.447,2.965-4.691,5.118-6.668l0.488-0.448l-0.052-0.659  c-0.306-3.862-2.729-7.189-4.574-9.197c3.09,0.123,7.992,0.946,11.599,4.539l0.624,0.621l0.822-0.316  c3.586-1.379,7.41-2.078,11.364-2.078c15.243,0,27.641,10.541,27.641,23.498c0,5.952-2.635,11.637-7.417,16.004l-0.295,0.27  l-3.213,12.173c-0.22,0.843-0.412,0.99-1.285,0.99h-6.006c-0.853,0-1.009-0.125-1.189-0.956l-1.257-5.712l-1.284,0.229  c-3.639,0.647-7.436,0.666-11.129,0.043L40.2,85.682l-1.48,5.612c-0.222,0.843-0.415,0.991-1.286,0.991h-6.007  c-0.852,0-1.007-0.125-1.19-0.956l-2.538-11.547l-0.35-0.298c-2.985-2.528-5.283-5.652-6.644-9.033l-0.284-0.704l-5.093-0.86  c-0.816-0.137-0.91-0.246-0.91-1.076V56.229c0-0.828,0.094-0.938,0.911-1.076l5.831-0.984L21.468,53.559z"/><path d="M39.319,46.857c1.357-0.572,3.859-1.336,7.537-1.336c3.673,0,6.178,0.766,7.539,1.338c0.691,0.291,1.547,0.105,1.961-0.52  s0.24-1.465-0.439-1.783c-1.561-0.729-4.551-1.752-9.059-1.752c-4.514,0-7.502,1.023-9.061,1.753  c-0.679,0.318-0.854,1.159-0.438,1.783C37.772,46.965,38.628,47.149,39.319,46.857z"/><path d="M46.855,32.65c7.624,0,13.827-6.201,13.827-13.825C60.684,11.202,54.479,5,46.855,5C39.232,5,33.03,11.202,33.03,18.825  C33.031,26.449,39.232,32.65,46.855,32.65z M46.855,7.716c6.127,0,11.11,4.984,11.11,11.109c0,6.126-4.982,11.108-11.11,11.108  c-6.125,0-11.11-4.982-11.11-11.108C35.746,12.7,40.73,7.716,46.855,7.716z"/><path d="M46.6,23.07c-1.613,0-3.297-0.853-3.314-0.86l-1.246,2.413c0.088,0.045,2.099,1.063,4.278,1.147v1.686h1.653v-1.824  c2.269-0.493,3.316-2.188,3.316-3.885c0-2.032-1.358-3.477-4.037-4.292c-2.112-0.644-2.112-1.383-2.112-1.698  c0-1.148,1.236-1.32,1.972-1.32c1.612,0,3.299,0.851,3.313,0.858l1.245-2.413c-0.08-0.042-1.755-0.896-3.698-1.111v-1.577h-1.653  v1.591c-2.67,0.311-3.894,2.141-3.894,3.973c0,2.034,1.357,3.479,4.036,4.295c2.112,0.646,2.112,1.381,2.112,1.695  C48.572,22.899,47.336,23.07,46.6,23.07z"/></svg>