<svg xmlns="http://www.w3.org/2000/svg" xmlns:xlink="http://www.w3.org/1999/xlink" version="1.1" x="0px" y="0px" viewBox="0 0 100 100" enable-background="new 0 0 100 100" xml:space="preserve"><g><path d="M37.787,60.619c0.311,0.231,0.684,0.352,1.059,0.352c0.268,0,0.534-0.061,0.784-0.182   c3.184-1.563,6.584-3.344,10.371-5.432c3.796,2.094,7.196,3.874,10.37,5.432c0.599,0.293,1.309,0.228,1.843-0.172   c0.534-0.396,0.8-1.059,0.692-1.715c-0.641-3.854-1.307-7.896-1.984-12.021c3.15-3.251,5.814-5.929,8.343-8.378   c0.479-0.466,0.656-1.16,0.461-1.798c-0.197-0.641-0.737-1.113-1.396-1.227c-3.779-0.654-7.678-1.326-11.534-1.973   c-0.766-1.65-1.529-3.302-2.293-4.953c-0.963-2.081-1.926-4.163-2.892-6.245c-0.291-0.628-0.921-1.029-1.61-1.029l0,0   c-0.692,0-1.32,0.401-1.611,1.029c-0.981,2.111-1.959,4.228-2.938,6.341c-0.75,1.619-1.5,3.238-2.249,4.857   c-3.765,0.631-7.571,1.288-11.261,1.925l-0.273,0.048c-0.658,0.113-1.196,0.586-1.394,1.225c-0.197,0.64-0.021,1.334,0.461,1.8   c2.528,2.453,5.194,5.129,8.341,8.378c-0.66,4.029-1.326,8.069-1.982,12.021C36.985,59.561,37.253,60.223,37.787,60.619z    M35.691,38.388c2.987-0.515,6.021-1.033,9.021-1.531c0.578-0.098,1.073-0.473,1.32-1.005c0.882-1.904,1.763-3.807,2.645-5.711   c0.44-0.953,0.881-1.908,1.324-2.861c0.426,0.921,0.853,1.844,1.279,2.766c0.896,1.936,1.791,3.872,2.688,5.807   c0.247,0.532,0.739,0.907,1.32,1.005c2.997,0.498,6.029,1.017,9.021,1.531c-2,1.986-4.14,4.157-6.563,6.666   c-0.389,0.403-0.564,0.967-0.475,1.521c0.528,3.219,1.049,6.389,1.56,9.466c-2.475-1.267-5.106-2.678-7.97-4.268   c-0.268-0.149-0.564-0.223-0.861-0.223c-0.298,0-0.595,0.073-0.864,0.223c-2.857,1.588-5.489,2.997-7.968,4.268   c0.519-3.135,1.041-6.308,1.558-9.466c0.092-0.555-0.084-1.118-0.475-1.521C39.831,42.547,37.691,40.374,35.691,38.388z"/><path d="M4.825,64.318c2.969,0.867,6.126,1.849,9.875,3.071c1.13,3.369,2.257,6.743,3.38,10.115   c0.211,0.632,0.758,1.093,1.413,1.194c0.092,0.015,0.182,0.022,0.273,0.022c0.563,0,1.099-0.27,1.436-0.732   c1.827-2.514,3.733-5.282,5.807-8.44c1.609,0.028,3.109,0.042,4.561,0.042c2.002,0,3.862-0.026,5.686-0.08   c0.664-0.02,1.262-0.41,1.549-1.011s0.214-1.311-0.189-1.841c-2.153-2.829-4.303-5.661-6.45-8.494   c1.108-3.801,2.077-6.962,3.028-9.887c0.208-0.636,0.04-1.334-0.433-1.807c-0.473-0.471-1.17-0.638-1.805-0.433   c-3.174,1.035-6.448,2.102-9.727,3.188c-1.24-0.945-2.48-1.893-3.723-2.838c-1.622-1.236-3.245-2.475-4.868-3.709   c-0.55-0.421-1.294-0.48-1.904-0.157c-0.612,0.323-0.98,0.971-0.945,1.661c0.106,2.046,0.214,4.09,0.321,6.136   c0.082,1.549,0.164,3.101,0.245,4.65c-2.691,2.056-5.403,4.147-8.034,6.173l-0.081,0.064c-0.528,0.408-0.784,1.078-0.66,1.734   C3.702,63.601,4.186,64.131,4.825,64.318z M15.252,57.228c0.467-0.354,0.728-0.919,0.698-1.506   c-0.096-1.862-0.195-3.727-0.293-5.589c-0.04-0.768-0.08-1.535-0.122-2.304c0.606,0.461,1.213,0.924,1.816,1.385   c1.49,1.136,2.981,2.272,4.471,3.407c0.467,0.355,1.079,0.457,1.638,0.271c2.442-0.812,4.889-1.615,7.302-2.403   c-0.708,2.271-1.445,4.736-2.259,7.542c-0.156,0.538-0.048,1.12,0.291,1.567c1.625,2.144,3.25,4.287,4.879,6.431   c-0.686,0.006-1.386,0.01-2.104,0.01c-1.719,0-3.508-0.02-5.472-0.062c-0.612-0.008-1.19,0.293-1.525,0.806   c-1.489,2.285-2.888,4.363-4.228,6.285c-0.852-2.553-1.705-5.104-2.561-7.655c-0.179-0.532-0.598-0.947-1.13-1.123   c-2.771-0.907-5.221-1.687-7.502-2.385C11.174,60.349,13.223,58.774,15.252,57.228z"/><path d="M65.239,46.472c-0.473,0.473-0.641,1.171-0.433,1.807c0.951,2.925,1.92,6.086,3.028,9.887   c-2.147,2.833-4.297,5.665-6.448,8.494c-0.405,0.53-0.477,1.24-0.191,1.841c0.287,0.601,0.885,0.991,1.551,1.011   c1.823,0.054,3.682,0.08,5.686,0.08c1.449,0,2.949-0.014,4.561-0.042c2.069,3.154,3.974,5.922,5.805,8.44   c0.337,0.463,0.873,0.732,1.438,0.732c0.09,0,0.18-0.008,0.271-0.022c0.657-0.102,1.202-0.563,1.413-1.192   c1.123-3.374,2.25-6.746,3.38-10.117c3.749-1.223,6.906-2.204,9.875-3.071c0.642-0.188,1.123-0.718,1.246-1.376   c0.126-0.656-0.13-1.326-0.66-1.734l-0.146-0.112c-2.608-2.012-5.298-4.086-7.97-6.125c0.083-1.584,0.167-3.169,0.249-4.752   c0.107-2.013,0.213-4.022,0.317-6.034c0.035-0.69-0.333-1.338-0.945-1.661c-0.61-0.323-1.354-0.264-1.904,0.157   c-1.596,1.215-3.188,2.429-4.784,3.646c-1.269,0.967-2.536,1.935-3.807,2.901c-3.254-1.081-6.54-2.149-9.727-3.188   C66.409,45.834,65.712,45.999,65.239,46.472z M76.541,52.893c0.557,0.186,1.169,0.084,1.636-0.271   c1.52-1.156,3.037-2.313,4.554-3.472c0.579-0.44,1.155-0.879,1.733-1.32c-0.038,0.734-0.078,1.468-0.116,2.202   c-0.1,1.896-0.199,3.794-0.299,5.69c-0.03,0.587,0.231,1.151,0.698,1.506c2.029,1.547,4.08,3.121,6.102,4.678   c-2.283,0.698-4.733,1.478-7.504,2.385c-0.532,0.176-0.951,0.593-1.13,1.123c-0.855,2.551-1.709,5.103-2.561,7.655   c-1.342-1.925-2.74-4.002-4.228-6.285c-0.329-0.503-0.888-0.806-1.487-0.806c-0.013,0-0.026,0-0.038,0   c-1.962,0.042-3.753,0.062-5.47,0.062c-0.72,0-1.42-0.004-2.104-0.01c1.627-2.142,3.254-4.285,4.879-6.431   c0.337-0.447,0.445-1.029,0.289-1.567c-0.813-2.806-1.551-5.271-2.259-7.542C71.66,51.281,74.112,52.085,76.541,52.893z"/></g></svg>