<svg xmlns="http://www.w3.org/2000/svg" xmlns:xlink="http://www.w3.org/1999/xlink" version="1.1" x="0px" y="0px" viewBox="0 0 100 125" style="enable-background:new 0 0 100 100;" xml:space="preserve"><g><polygon points="39.97,83.194 39.559,83.633 39.764,84.081 40.493,83.969 40.166,83.53  "/><polygon points="32.865,75.56 32.807,76.322 32.68,76.726 33.327,77.246 33.327,76.403 33.465,75.895 33.153,75.768  "/><polygon points="34.285,76.403 34.423,76.749 34.562,76.034 34.008,75.63  "/><polygon points="41.322,68.234 41.651,68.876 42.093,68.591 42.165,67.934 41.536,67.806  "/><polygon points="41.85,66.635 41.743,66.921 42.05,67.649 42.279,66.892  "/><polygon points="41.237,65.836 41.237,65.365 40.894,65.365 40.78,65.708  "/><polygon points="53.772,54.402 53.772,55.105 54.106,55.339 54.664,55.25 54.218,54.525  "/><polygon points="55.155,56.746 54.932,57.002 55.278,57.493 55.468,57.119 55.356,56.746  "/><polygon points="71.769,36.253 71.516,35.597 70.356,34.79 69.852,33.983 68.792,33.4 67.783,32.166 67.178,31.662 66.825,27.626    63.798,23.691 62.89,21.824 59.207,21.623 57.139,23.943 55.877,24.145 52.951,22.127 49.42,25.204 48.007,26.163 46.796,25.507    48.007,22.178 47.402,21.37 48.562,18.495 48.209,15.518 46.544,14.913 44.829,15.216 43.896,13.904 44.779,12.138 43.896,11.079    42.66,11.381 38.926,11.079 38.22,12.491 36.959,12.491 35.95,14.207 32.974,14.56 31.611,14.055 30.149,16.426 29.896,18.293    30.199,20.361 28.231,20.916 29.089,22.127 29.442,22.48 29.745,24.498 33.73,28.736 34.991,32.519 35.799,32.065 34.639,33.882    34.336,37.262 32.368,38.22 34.285,42.811 36.909,45.283 37.514,48.562 37.514,50.479 38.926,52.598 39.835,56.18 38.397,58.501    35.446,61.931 35.143,64.353 33.175,69.095 32.418,73.181 33.276,75.149 34.285,74.19 35.446,75.855 36.858,76.612 36.909,77.671    37.968,78.125 39.734,80.294 40.238,82.363 42.71,84.381 42.861,83.473 46.04,84.784 47.503,85.945 46.897,87.912 47.755,88.921    48.865,88.064 50.177,87.559 50.933,87.811 52.194,86.954 52.901,85.541 51.236,83.876 49.672,82.262 46.847,82.161 44.879,80.496    43.467,80.042 42.357,78.327 42.508,77.419 43.669,78.176 44.425,79.285 43.164,73.837 42.306,73.938 41.802,72.929 41.045,69.7    40.188,69.297 38.271,69.246 37.817,67.884 37.464,64.05 39.078,61.124 39.835,57.794 41.298,55.322 41.954,53.052 41.853,51.64    42.206,49.672 42.054,48.411 43.618,46.897 46.847,47.654 46.595,51.034 47.755,51.892 51.64,51.539 54.364,53.859 55.676,54.414    57.038,56.331 56.331,53.859 56.382,53.002 55.222,51.69 54.818,49.571 54.011,47.553 54.566,46.595 57.845,43.013 61.225,42.609    67.027,42.256 68.136,43.215 69.498,42.458 71.062,40.591 70.76,38.119  "/></g></svg>